<svg xmlns="http://www.w3.org/2000/svg" xmlns:xlink="http://www.w3.org/1999/xlink" width="500" zoomAndPan="magnify" viewBox="0 0 375 374.999991" height="500" preserveAspectRatio="xMidYMid meet" version="1.0"><defs><clipPath id="93e50fe478"><path d="M 76.179688 44.851562 L 298.929688 44.851562 L 298.929688 311.851562 L 76.179688 311.851562 Z M 76.179688 44.851562 " clip-rule="nonzero"/></clipPath></defs><path fill="#c6cad3" d="M 285.519531 307.398438 L 89.589844 307.398438 C 84.667969 307.398438 80.683594 303.417969 80.683594 298.5 L 80.683594 58.199219 C 80.683594 53.28125 84.667969 49.300781 89.589844 49.300781 L 285.519531 49.300781 C 290.441406 49.300781 294.421875 53.28125 294.421875 58.199219 L 294.421875 298.5 C 294.421875 303.417969 290.441406 307.398438 285.519531 307.398438 " fill-opacity="1" fill-rule="nonzero"/><path fill="#808998" d="M 156.382812 129.398438 L 102.949219 129.398438 C 100.496094 129.398438 98.496094 127.402344 98.496094 124.949219 L 98.496094 71.550781 C 98.496094 69.097656 100.496094 67.101562 102.949219 67.101562 L 156.382812 67.101562 C 158.835938 67.101562 160.835938 69.097656 160.835938 71.550781 L 160.835938 124.949219 C 160.835938 127.402344 158.835938 129.398438 156.382812 129.398438 " fill-opacity="1" fill-rule="nonzero"/><path fill="#808998" d="M 156.382812 209.5 L 102.949219 209.5 C 100.496094 209.5 98.496094 207.5 98.496094 205.050781 L 98.496094 151.648438 C 98.496094 149.199219 100.496094 147.199219 102.949219 147.199219 L 156.382812 147.199219 C 158.835938 147.199219 160.835938 149.199219 160.835938 151.648438 L 160.835938 205.050781 C 160.835938 207.5 158.835938 209.5 156.382812 209.5 " fill-opacity="1" fill-rule="nonzero"/><path fill="#808998" d="M 156.382812 289.601562 L 102.949219 289.601562 C 100.496094 289.601562 98.496094 287.601562 98.496094 285.148438 L 98.496094 231.75 C 98.496094 229.296875 100.496094 227.300781 102.949219 227.300781 L 156.382812 227.300781 C 158.835938 227.300781 160.835938 229.296875 160.835938 231.75 L 160.835938 285.148438 C 160.835938 287.601562 158.835938 289.601562 156.382812 289.601562 " fill-opacity="1" fill-rule="nonzero"/><path fill="#ffffff" d="M 138.570312 93.800781 C 138.570312 98.71875 134.589844 102.699219 129.664062 102.699219 C 124.742188 102.699219 120.757812 98.71875 120.757812 93.800781 C 120.757812 88.878906 124.742188 84.898438 129.664062 84.898438 C 134.589844 84.898438 138.570312 88.878906 138.570312 93.800781 " fill-opacity="1" fill-rule="nonzero"/><path fill="#ffffff" d="M 143.023438 129.398438 L 116.304688 129.398438 L 116.304688 116.050781 C 116.304688 108.679688 122.289062 102.699219 129.664062 102.699219 C 137.039062 102.699219 143.023438 108.679688 143.023438 116.050781 L 143.023438 129.398438 " fill-opacity="1" fill-rule="nonzero"/><path fill="#ffffff" d="M 138.570312 173.898438 C 138.570312 178.820312 134.589844 182.800781 129.664062 182.800781 C 124.742188 182.800781 120.757812 178.820312 120.757812 173.898438 C 120.757812 168.980469 124.742188 165 129.664062 165 C 134.589844 165 138.570312 168.980469 138.570312 173.898438 " fill-opacity="1" fill-rule="nonzero"/><path fill="#ffffff" d="M 143.023438 209.5 L 116.304688 209.5 L 116.304688 196.148438 C 116.304688 188.78125 122.289062 182.800781 129.664062 182.800781 C 137.039062 182.800781 143.023438 188.78125 143.023438 196.148438 L 143.023438 209.5 " fill-opacity="1" fill-rule="nonzero"/><path fill="#ffffff" d="M 138.570312 254 C 138.570312 258.917969 134.589844 262.898438 129.664062 262.898438 C 124.742188 262.898438 120.757812 258.917969 120.757812 254 C 120.757812 249.082031 124.742188 245.101562 129.664062 245.101562 C 134.589844 245.101562 138.570312 249.082031 138.570312 254 " fill-opacity="1" fill-rule="nonzero"/><path fill="#ffffff" d="M 143.023438 289.601562 L 116.304688 289.601562 L 116.304688 276.25 C 116.304688 268.878906 122.289062 262.898438 129.664062 262.898438 C 137.039062 262.898438 143.023438 268.878906 143.023438 276.25 L 143.023438 289.601562 " fill-opacity="1" fill-rule="nonzero"/><path fill="#edf0f1" d="M 272.160156 129.398438 L 227.628906 129.398438 C 225.175781 129.398438 223.175781 127.402344 223.175781 124.949219 L 223.175781 71.550781 C 223.175781 69.097656 225.175781 67.101562 227.628906 67.101562 L 272.160156 67.101562 C 274.613281 67.101562 276.613281 69.097656 276.613281 71.550781 L 276.613281 124.949219 C 276.613281 127.402344 274.613281 129.398438 272.160156 129.398438 " fill-opacity="1" fill-rule="nonzero"/><path fill="#edf0f1" d="M 272.160156 209.5 L 227.628906 209.5 C 225.175781 209.5 223.175781 207.5 223.175781 205.050781 L 223.175781 151.648438 C 223.175781 149.199219 225.175781 147.199219 227.628906 147.199219 L 272.160156 147.199219 C 274.613281 147.199219 276.613281 149.199219 276.613281 151.648438 L 276.613281 205.050781 C 276.613281 207.5 274.613281 209.5 272.160156 209.5 " fill-opacity="1" fill-rule="nonzero"/><path fill="#edf0f1" d="M 272.160156 289.601562 L 227.628906 289.601562 C 225.175781 289.601562 223.175781 287.601562 223.175781 285.148438 L 223.175781 231.75 C 223.175781 229.296875 225.175781 227.300781 227.628906 227.300781 L 272.160156 227.300781 C 274.613281 227.300781 276.613281 229.296875 276.613281 231.75 L 276.613281 285.148438 C 276.613281 287.601562 274.613281 289.601562 272.160156 289.601562 " fill-opacity="1" fill-rule="nonzero"/><g clip-path="url(#93e50fe478)"><path fill="#2b2c2d" d="M 285.519531 44.851562 L 89.589844 44.851562 C 82.214844 44.851562 76.230469 50.828125 76.230469 58.199219 L 76.230469 76 C 76.230469 78.449219 78.230469 80.449219 80.683594 80.449219 C 83.136719 80.449219 85.136719 78.449219 85.136719 76 L 85.136719 58.199219 C 85.136719 55.75 87.136719 53.75 89.589844 53.75 L 285.519531 53.75 C 287.96875 53.75 289.972656 55.75 289.972656 58.199219 L 289.972656 298.5 C 289.972656 300.949219 287.96875 302.949219 285.519531 302.949219 L 89.589844 302.949219 C 87.136719 302.949219 85.136719 300.949219 85.136719 298.5 L 85.136719 98.25 C 85.136719 95.796875 83.136719 93.800781 80.683594 93.800781 C 78.230469 93.800781 76.230469 95.796875 76.230469 98.25 L 76.230469 298.5 C 76.230469 305.871094 82.214844 311.851562 89.589844 311.851562 L 285.519531 311.851562 C 292.894531 311.851562 298.875 305.871094 298.875 298.5 L 298.875 58.199219 C 298.875 50.828125 292.894531 44.851562 285.519531 44.851562 " fill-opacity="1" fill-rule="nonzero"/></g><path fill="#2b2c2d" d="M 102.949219 71.550781 L 156.382812 71.550781 L 156.398438 124.949219 L 147.476562 124.949219 L 147.476562 116.050781 C 147.476562 110.226562 144.605469 105.082031 140.277344 101.832031 C 141.980469 99.589844 143.023438 96.824219 143.023438 93.800781 C 143.023438 86.429688 137.039062 80.449219 129.664062 80.449219 C 122.289062 80.449219 116.304688 86.429688 116.304688 93.800781 C 116.304688 96.824219 117.351562 99.589844 119.054688 101.832031 C 114.722656 105.082031 111.855469 110.226562 111.855469 116.050781 L 111.855469 124.949219 L 102.949219 124.949219 Z M 120.757812 124.949219 L 120.757812 116.050781 C 120.757812 111.148438 124.761719 107.148438 129.664062 107.148438 C 134.570312 107.148438 138.570312 111.148438 138.570312 116.050781 L 138.570312 124.949219 Z M 125.210938 93.800781 C 125.210938 91.347656 127.210938 89.351562 129.664062 89.351562 C 132.117188 89.351562 134.117188 91.347656 134.117188 93.800781 C 134.117188 96.25 132.117188 98.25 129.664062 98.25 C 127.210938 98.25 125.210938 96.25 125.210938 93.800781 Z M 102.949219 133.851562 L 156.382812 133.851562 C 161.289062 133.851562 165.289062 129.851562 165.289062 124.949219 L 165.289062 71.550781 C 165.289062 66.648438 161.289062 62.648438 156.382812 62.648438 L 102.949219 62.648438 C 98.042969 62.648438 94.042969 66.648438 94.042969 71.550781 L 94.042969 124.949219 C 94.042969 129.851562 98.042969 133.851562 102.949219 133.851562 " fill-opacity="1" fill-rule="nonzero"/><path fill="#2b2c2d" d="M 102.949219 151.648438 L 156.382812 151.648438 L 156.398438 205.050781 L 147.476562 205.050781 L 147.476562 196.148438 C 147.476562 190.328125 144.605469 185.179688 140.277344 181.929688 C 141.980469 179.6875 143.023438 176.925781 143.023438 173.898438 C 143.023438 166.53125 137.039062 160.550781 129.664062 160.550781 C 122.289062 160.550781 116.304688 166.53125 116.304688 173.898438 C 116.304688 176.925781 117.351562 179.6875 119.054688 181.929688 C 114.722656 185.179688 111.855469 190.328125 111.855469 196.148438 L 111.855469 205.050781 L 102.949219 205.050781 Z M 120.757812 205.050781 L 120.757812 196.148438 C 120.757812 191.246094 124.761719 187.25 129.664062 187.25 C 134.570312 187.25 138.570312 191.246094 138.570312 196.148438 L 138.570312 205.050781 Z M 125.210938 173.898438 C 125.210938 171.449219 127.210938 169.449219 129.664062 169.449219 C 132.117188 169.449219 134.117188 171.449219 134.117188 173.898438 C 134.117188 176.351562 132.117188 178.351562 129.664062 178.351562 C 127.210938 178.351562 125.210938 176.351562 125.210938 173.898438 Z M 94.042969 205.050781 C 94.042969 209.953125 98.042969 213.949219 102.949219 213.949219 L 156.382812 213.949219 C 161.289062 213.949219 165.289062 209.953125 165.289062 205.050781 L 165.289062 151.648438 C 165.289062 146.746094 161.289062 142.75 156.382812 142.75 L 102.949219 142.75 C 98.042969 142.75 94.042969 146.746094 94.042969 151.648438 L 94.042969 205.050781 " fill-opacity="1" fill-rule="nonzero"/><path fill="#2b2c2d" d="M 102.949219 231.75 L 156.382812 231.75 L 156.382812 285.148438 L 147.476562 285.148438 L 147.476562 276.25 C 147.476562 270.410156 144.605469 265.28125 140.277344 262.03125 C 141.980469 259.789062 143.023438 257.023438 143.023438 254 C 143.023438 246.628906 137.039062 240.648438 129.664062 240.648438 C 122.289062 240.648438 116.304688 246.628906 116.304688 254 C 116.304688 257.023438 117.351562 259.789062 119.054688 262.03125 C 114.722656 265.28125 111.855469 270.410156 111.855469 276.25 L 111.855469 285.148438 L 102.949219 285.148438 Z M 120.757812 285.148438 L 120.757812 276.25 C 120.757812 271.347656 124.761719 267.351562 129.664062 267.351562 C 134.570312 267.351562 138.570312 271.347656 138.570312 276.25 L 138.570312 285.148438 Z M 125.210938 254 C 125.210938 251.546875 127.210938 249.550781 129.664062 249.550781 C 132.117188 249.550781 134.117188 251.546875 134.117188 254 C 134.117188 256.449219 132.117188 258.449219 129.664062 258.449219 C 127.210938 258.449219 125.210938 256.449219 125.210938 254 Z M 94.042969 289.601562 C 94.042969 292.050781 96.042969 294.050781 98.496094 294.050781 L 160.835938 294.050781 C 163.289062 294.050781 165.289062 292.050781 165.289062 289.601562 L 165.289062 227.300781 C 165.289062 224.847656 163.289062 222.851562 160.835938 222.851562 L 98.496094 222.851562 C 96.042969 222.851562 94.042969 224.847656 94.042969 227.300781 L 94.042969 289.601562 " fill-opacity="1" fill-rule="nonzero"/><path fill="#2b2c2d" d="M 227.628906 71.550781 L 272.160156 71.550781 L 272.175781 124.949219 L 227.628906 124.949219 Z M 227.628906 133.851562 L 272.160156 133.851562 C 277.0625 133.851562 281.066406 129.851562 281.066406 124.949219 L 281.066406 71.550781 C 281.066406 66.648438 277.0625 62.648438 272.160156 62.648438 L 227.628906 62.648438 C 222.722656 62.648438 218.722656 66.648438 218.722656 71.550781 L 218.722656 124.949219 C 218.722656 129.851562 222.722656 133.851562 227.628906 133.851562 " fill-opacity="1" fill-rule="nonzero"/><path fill="#2b2c2d" d="M 227.628906 151.648438 L 272.160156 151.648438 L 272.175781 205.050781 L 227.628906 205.050781 Z M 218.722656 205.050781 C 218.722656 209.953125 222.722656 213.949219 227.628906 213.949219 L 272.160156 213.949219 C 277.0625 213.949219 281.066406 209.953125 281.066406 205.050781 L 281.066406 151.648438 C 281.066406 146.746094 277.0625 142.75 272.160156 142.75 L 227.628906 142.75 C 222.722656 142.75 218.722656 146.746094 218.722656 151.648438 L 218.722656 205.050781 " fill-opacity="1" fill-rule="nonzero"/><path fill="#2b2c2d" d="M 227.628906 231.75 L 272.160156 231.75 L 272.175781 285.148438 L 227.628906 285.148438 Z M 218.722656 285.148438 C 218.722656 290.050781 222.722656 294.050781 227.628906 294.050781 L 272.160156 294.050781 C 277.0625 294.050781 281.066406 290.050781 281.066406 285.148438 L 281.066406 231.75 C 281.066406 226.847656 277.0625 222.851562 272.160156 222.851562 L 227.628906 222.851562 C 222.722656 222.851562 218.722656 226.847656 218.722656 231.75 L 218.722656 285.148438 " fill-opacity="1" fill-rule="nonzero"/><path fill="#2b2c2d" d="M 178.648438 76 L 192.007812 76 C 194.457031 76 196.460938 74 196.460938 71.550781 C 196.460938 69.097656 194.457031 67.101562 192.007812 67.101562 L 178.648438 67.101562 C 176.195312 67.101562 174.195312 69.097656 174.195312 71.550781 C 174.195312 74 176.195312 76 178.648438 76 " fill-opacity="1" fill-rule="nonzero"/><path fill="#2b2c2d" d="M 178.648438 93.800781 L 205.363281 93.800781 C 207.816406 93.800781 209.816406 91.800781 209.816406 89.351562 C 209.816406 86.898438 207.816406 84.898438 205.363281 84.898438 L 178.648438 84.898438 C 176.195312 84.898438 174.195312 86.898438 174.195312 89.351562 C 174.195312 91.800781 176.195312 93.800781 178.648438 93.800781 " fill-opacity="1" fill-rule="nonzero"/><path fill="#2b2c2d" d="M 178.648438 111.601562 L 205.363281 111.601562 C 207.816406 111.601562 209.816406 109.601562 209.816406 107.148438 C 209.816406 104.699219 207.816406 102.699219 205.363281 102.699219 L 178.648438 102.699219 C 176.195312 102.699219 174.195312 104.699219 174.195312 107.148438 C 174.195312 109.601562 176.195312 111.601562 178.648438 111.601562 " fill-opacity="1" fill-rule="nonzero"/><path fill="#2b2c2d" d="M 178.648438 129.398438 L 187.554688 129.398438 C 190.007812 129.398438 192.007812 127.402344 192.007812 124.949219 C 192.007812 122.5 190.007812 120.5 187.554688 120.5 L 178.648438 120.5 C 176.195312 120.5 174.195312 122.5 174.195312 124.949219 C 174.195312 127.402344 176.195312 129.398438 178.648438 129.398438 " fill-opacity="1" fill-rule="nonzero"/><path fill="#2b2c2d" d="M 260.800781 80.917969 C 258.589844 79.824219 255.914062 80.710938 254.816406 82.902344 L 244.222656 104.089844 L 244.136719 104.003906 C 242.398438 102.265625 239.578125 102.265625 237.839844 104.003906 C 236.101562 105.742188 236.101562 108.558594 237.839844 110.296875 L 242.292969 114.746094 C 243.128906 115.597656 244.277344 116.050781 245.441406 116.050781 C 245.667969 116.050781 245.910156 116.03125 246.15625 115.996094 C 247.5625 115.753906 248.78125 114.867188 249.425781 113.597656 L 262.785156 86.898438 C 263.878906 84.691406 262.992188 82.015625 260.800781 80.917969 " fill-opacity="1" fill-rule="nonzero"/><path fill="#2b2c2d" d="M 178.648438 156.101562 L 192.007812 156.101562 C 194.457031 156.101562 196.460938 154.101562 196.460938 151.648438 C 196.460938 149.199219 194.457031 147.199219 192.007812 147.199219 L 178.648438 147.199219 C 176.195312 147.199219 174.195312 149.199219 174.195312 151.648438 C 174.195312 154.101562 176.195312 156.101562 178.648438 156.101562 " fill-opacity="1" fill-rule="nonzero"/><path fill="#2b2c2d" d="M 178.648438 173.898438 L 205.363281 173.898438 C 207.816406 173.898438 209.816406 171.902344 209.816406 169.449219 C 209.816406 167 207.816406 165 205.363281 165 L 178.648438 165 C 176.195312 165 174.195312 167 174.195312 169.449219 C 174.195312 171.902344 176.195312 173.898438 178.648438 173.898438 " fill-opacity="1" fill-rule="nonzero"/><path fill="#2b2c2d" d="M 178.648438 191.699219 L 205.363281 191.699219 C 207.816406 191.699219 209.816406 189.699219 209.816406 187.25 C 209.816406 184.796875 207.816406 182.800781 205.363281 182.800781 L 178.648438 182.800781 C 176.195312 182.800781 174.195312 184.796875 174.195312 187.25 C 174.195312 189.699219 176.195312 191.699219 178.648438 191.699219 " fill-opacity="1" fill-rule="nonzero"/><path fill="#2b2c2d" d="M 178.648438 209.5 L 187.554688 209.5 C 190.007812 209.5 192.007812 207.5 192.007812 205.050781 C 192.007812 202.597656 190.007812 200.601562 187.554688 200.601562 L 178.648438 200.601562 C 176.195312 200.601562 174.195312 202.597656 174.195312 205.050781 C 174.195312 207.5 176.195312 209.5 178.648438 209.5 " fill-opacity="1" fill-rule="nonzero"/><path fill="#2b2c2d" d="M 260.800781 161.019531 C 258.589844 159.925781 255.914062 160.808594 254.816406 163 L 244.222656 184.191406 L 244.136719 184.101562 C 242.398438 182.363281 239.578125 182.363281 237.839844 184.101562 C 236.101562 185.839844 236.101562 188.65625 237.839844 190.394531 L 242.292969 194.847656 C 243.128906 195.699219 244.277344 196.148438 245.441406 196.148438 C 245.667969 196.148438 245.910156 196.132812 246.15625 196.097656 C 247.5625 195.855469 248.78125 194.96875 249.425781 193.699219 L 262.785156 167 C 263.878906 164.792969 262.992188 162.113281 260.800781 161.019531 " fill-opacity="1" fill-rule="nonzero"/><path fill="#2b2c2d" d="M 178.648438 236.199219 L 192.007812 236.199219 C 194.457031 236.199219 196.460938 234.199219 196.460938 231.75 C 196.460938 229.296875 194.457031 227.300781 192.007812 227.300781 L 178.648438 227.300781 C 176.195312 227.300781 174.195312 229.296875 174.195312 231.75 C 174.195312 234.199219 176.195312 236.199219 178.648438 236.199219 " fill-opacity="1" fill-rule="nonzero"/><path fill="#2b2c2d" d="M 178.648438 254 L 205.363281 254 C 207.816406 254 209.816406 252 209.816406 249.550781 C 209.816406 247.097656 207.816406 245.101562 205.363281 245.101562 L 178.648438 245.101562 C 176.195312 245.101562 174.195312 247.097656 174.195312 249.550781 C 174.195312 252 176.195312 254 178.648438 254 " fill-opacity="1" fill-rule="nonzero"/><path fill="#2b2c2d" d="M 178.648438 271.800781 L 205.363281 271.800781 C 207.816406 271.800781 209.816406 269.800781 209.816406 267.351562 C 209.816406 264.898438 207.816406 262.898438 205.363281 262.898438 L 178.648438 262.898438 C 176.195312 262.898438 174.195312 264.898438 174.195312 267.351562 C 174.195312 269.800781 176.195312 271.800781 178.648438 271.800781 " fill-opacity="1" fill-rule="nonzero"/><path fill="#2b2c2d" d="M 178.648438 289.601562 L 187.554688 289.601562 C 190.007812 289.601562 192.007812 287.601562 192.007812 285.148438 C 192.007812 282.699219 190.007812 280.699219 187.554688 280.699219 L 178.648438 280.699219 C 176.195312 280.699219 174.195312 282.699219 174.195312 285.148438 C 174.195312 287.601562 176.195312 289.601562 178.648438 289.601562 " fill-opacity="1" fill-rule="nonzero"/><path fill="#2b2c2d" d="M 261.269531 241.398438 C 259.21875 240.023438 256.453125 240.582031 255.09375 242.632812 L 249.894531 250.4375 L 244.695312 242.632812 C 243.335938 240.582031 240.570312 240.023438 238.519531 241.398438 C 236.464844 242.753906 235.910156 245.515625 237.285156 247.566406 L 244.535156 258.449219 L 237.285156 269.332031 C 235.910156 271.382812 236.464844 274.128906 238.519531 275.503906 C 239.285156 276.007812 240.136719 276.25 240.988281 276.25 C 242.433594 276.25 243.839844 275.554688 244.695312 274.269531 L 249.894531 266.464844 L 255.09375 274.269531 C 255.949219 275.554688 257.355469 276.25 258.800781 276.25 C 259.652344 276.25 260.503906 276.007812 261.269531 275.503906 C 263.324219 274.128906 263.878906 271.382812 262.503906 269.332031 L 255.25 258.449219 L 262.503906 247.566406 C 263.878906 245.515625 263.324219 242.753906 261.269531 241.398438 " fill-opacity="1" fill-rule="nonzero"/></svg>